<?xml version="1.0" encoding="utf-8"?>
<!-- Generator: Adobe Illustrator 26.5.0, SVG Export Plug-In . SVG Version: 6.00 Build 0)  -->
<svg version="1.1" id="Layer_1" xmlns="http://www.w3.org/2000/svg" xmlns:xlink="http://www.w3.org/1999/xlink" x="0px" y="0px"
	 viewBox="0 0 331.1 73.4" style="enable-background:new 0 0 331.1 73.4;" xml:space="preserve">
<style type="text/css">
	.st0{fill:#FFA31A;}
	.st1{fill:#FFE4BF;}
	.st2{fill:#E90006;}
</style>
<g>
	<path class="st0" d="M11.6,11.5H0.1v-10h34v10H22.6v60h-11C11.6,71.5,11.6,11.5,11.6,11.5z"/>
	<path class="st0" d="M33.6,1.5h30v10h-19V30h15.1v10H44.6v21.5h19v10h-30C33.6,71.5,33.6,1.5,33.6,1.5z"/>
	<path class="st0" d="M67.7,67.6c-2.8-3-4.2-7.2-4.2-12.7V17.3c0-5.5,1.4-9.7,4.2-12.7c2.8-3,6.8-4.5,12.1-4.5
		c5.3,0,9.3,1.5,12.1,4.5c2.8,3,4.2,7.2,4.2,12.7v7.4H85.6v-8.1c0-4.3-1.8-6.5-5.5-6.5s-5.5,2.2-5.5,6.5v39.1c0,4.3,1.8,6.4,5.5,6.4
		s5.5-2.1,5.5-6.4V45H96v9.9c0,5.5-1.4,9.7-4.2,12.7c-2.8,3-6.8,4.5-12.1,4.5C74.5,72.1,70.5,70.6,67.7,67.6z"/>
	<path class="st0" d="M96,1.5h11V30h11.8V1.5h11v70h-11V40H107v31.5H96C96,71.5,96,1.5,96,1.5z"/>
	<path class="st1" d="M145.4,12.1h-11.5v-10h34v10h-11.5v60h-11V12.1z"/>
	<path class="st1" d="M174.3,68.5c-2.8-3-4.2-7.4-4.2-13V2.1h11v54.2c0,2.4,0.5,4.1,1.4,5.2s2.4,1.6,4.1,1.6c1.8,0,3.2-0.5,4.1-1.6
		s1.4-2.8,1.4-5.2V2.1h10.6v53.4c0,5.7-1.4,10-4.2,13s-6.9,4.6-12.2,4.6C181.2,73.1,177.1,71.5,174.3,68.5z"/>
	<path class="st1" d="M205.2,2.1h16.6c5.7,0,9.8,1.3,12.4,4c2.6,2.6,3.9,6.7,3.9,12.1V21c0,3.6-0.6,6.5-1.8,8.8s-2.9,3.9-5.4,4.9
		v0.2c5.5,1.9,8.2,6.7,8.2,14.6v6c0,5.4-1.4,9.5-4.2,12.3c-2.8,2.8-7,4.2-12.4,4.2h-17.3L205.2,2.1L205.2,2.1z M220.5,30.6
		c2.2,0,3.9-0.6,4.9-1.7c1.1-1.1,1.6-3,1.6-5.7v-3.9c0-2.5-0.4-4.4-1.4-5.5c-0.9-1.1-2.3-1.7-4.2-1.7h-5.3v18.5
		C216.2,30.6,220.5,30.6,220.5,30.6z M222.5,62.1c1.9,0,3.4-0.5,4.3-1.5c0.9-1,1.4-2.8,1.4-5.3v-6.1c0-3.2-0.6-5.4-1.6-6.7
		c-1.1-1.2-2.9-1.8-5.4-1.8h-4.9v21.5C216.2,62.1,222.5,62.1,222.5,62.1z"/>
	<path class="st1" d="M240.5,2.1h33.8v10h-21.4v18.5h17v10h-17v21.5h21.4v10h-33.8L240.5,2.1L240.5,2.1z"/>
	<path class="st2" d="M284.1,2.1h3.9l3,18.2h-2.9l-0.5-3.6v0h-3.2l-0.5,3.6h-2.6L284.1,2.1z M287.2,14.2l-1.3-9h0l-1.2,9H287.2z"/>
	<path class="st2" d="M292.3,2.1h4.4c1.4,0,2.5,0.4,3.2,1.1c0.7,0.8,1.1,1.9,1.1,3.3v9.2c0,1.5-0.4,2.6-1.1,3.4
		c-0.7,0.8-1.8,1.1-3.2,1.1h-4.4V2.1z M296.6,17.7c0.5,0,0.8-0.1,1.1-0.4s0.4-0.7,0.4-1.4V6.4c0-0.6-0.1-1.1-0.4-1.3
		c-0.2-0.3-0.6-0.4-1.1-0.4h-1.5v13H296.6z"/>
	<path class="st2" d="M302.9,2.1h4.1l1.8,13h0l1.8-13h4.1v18.2H312V6.5h0l-2.1,13.8h-2.4l-2.1-13.8h0v13.8h-2.5V2.1z"/>
	<path class="st2" d="M316.9,2.1h2.9v18.2h-2.9V2.1z"/>
	<path class="st2" d="M321.9,2.1h3.6l2.8,10.9h0V2.1h2.5v18.2h-2.9L324.5,7h0v13.3h-2.6V2.1z"/>
</g>
</svg>
