<svg width="184" height="299" viewBox="0 0 184 299" fill="none" xmlns="http://www.w3.org/2000/svg">
<path d="M11.192 11.4H0.152V1.8H32.792V11.4H21.752V69H11.192V11.4ZM37.9048 1.8H66.7048V11.4H48.4648V29.16H62.9608V38.76H48.4648V59.4H66.7048V69H37.9048V1.8ZM87.6598 69.96C82.6038 69.96 78.7318 68.52 76.0438 65.64C73.4198 62.76 72.1078 58.696 72.1078 53.448V17.352C72.1078 12.104 73.4198 8.04 76.0438 5.16C78.7318 2.28 82.6038 0.839996 87.6598 0.839996C92.7158 0.839996 96.5558 2.28 99.1798 5.16C101.868 8.04 103.212 12.104 103.212 17.352V24.456H93.2278V16.68C93.2278 12.52 91.4678 10.44 87.9478 10.44C84.4278 10.44 82.6678 12.52 82.6678 16.68V54.216C82.6678 58.312 84.4278 60.36 87.9478 60.36C91.4678 60.36 93.2278 58.312 93.2278 54.216V43.944H103.212V53.448C103.212 58.696 101.868 62.76 99.1798 65.64C96.5558 68.52 92.7158 69.96 87.6598 69.96ZM109.53 1.8H120.09V29.16H131.418V1.8H141.978V69H131.418V38.76H120.09V69H109.53V1.8Z" fill="#FFA31A"/>
<path d="M11.192 126.4H0.152V116.8H32.792V126.4H21.752V184H11.192V126.4ZM53.2648 184.96C48.1448 184.96 44.2408 183.52 41.5528 180.64C38.8648 177.696 37.5208 173.504 37.5208 168.064V116.8H48.0807V168.832C48.0807 171.136 48.5288 172.8 49.4248 173.824C50.3848 174.848 51.7288 175.36 53.4568 175.36C55.1848 175.36 56.4968 174.848 57.3928 173.824C58.3528 172.8 58.8328 171.136 58.8328 168.832V116.8H69.0088V168.064C69.0088 173.504 67.6648 177.696 64.9768 180.64C62.2888 183.52 58.3848 184.96 53.2648 184.96ZM76.5298 116.8H92.4658C97.9058 116.8 101.874 118.08 104.37 120.64C106.866 123.136 108.114 127.008 108.114 132.256V134.944C108.114 138.4 107.538 141.216 106.386 143.392C105.298 145.568 103.602 147.136 101.298 148.096V148.288C106.546 150.08 109.17 154.752 109.17 162.304V168.064C109.17 173.248 107.794 177.216 105.042 179.968C102.354 182.656 98.3858 184 93.1378 184H76.5298V116.8ZM91.2178 144.16C93.3298 144.16 94.8978 143.616 95.9218 142.528C97.0098 141.44 97.5538 139.616 97.5538 137.056V133.312C97.5538 130.88 97.1058 129.12 96.2098 128.032C95.3778 126.944 94.0338 126.4 92.1778 126.4H87.0898V144.16H91.2178ZM93.1378 174.4C94.9938 174.4 96.3698 173.92 97.2657 172.96C98.1618 171.936 98.6098 170.208 98.6098 167.776V161.92C98.6098 158.848 98.0658 156.736 96.9778 155.584C95.9538 154.368 94.2258 153.76 91.7938 153.76H87.0898V174.4H93.1378ZM115.342 116.8H144.142V126.4H125.902V144.16H140.398V153.76H125.902V174.4H144.142V184H115.342V116.8Z" fill="#DA8E1E"/>
<path d="M11.096 231.8H25.4L36.344 299H25.784L23.864 285.656V285.848H11.864L9.944 299H0.152L11.096 231.8ZM22.616 276.728L17.912 243.512H17.72L13.112 276.728H22.616ZM41.4673 231.8H57.5953C62.8433 231.8 66.7793 233.208 69.4033 236.024C72.0273 238.84 73.3393 242.968 73.3393 248.408V282.392C73.3393 287.832 72.0273 291.96 69.4033 294.776C66.7793 297.592 62.8433 299 57.5953 299H41.4673V231.8ZM57.4033 289.4C59.1313 289.4 60.4433 288.888 61.3393 287.864C62.2993 286.84 62.7793 285.176 62.7793 282.872V247.928C62.7793 245.624 62.2993 243.96 61.3393 242.936C60.4433 241.912 59.1313 241.4 57.4033 241.4H52.0273V289.4H57.4033ZM80.4673 231.8H95.5393L102.259 279.896H102.451L109.171 231.8H124.243V299H114.259V248.12H114.067L106.387 299H97.5553L89.8753 248.12H89.6833V299H80.4673V231.8ZM132.124 231.8H142.684V299H132.124V231.8ZM150.592 231.8H163.84L174.112 272.024H174.304V231.8H183.712V299H172.864L160.192 249.944H160V299H150.592V231.8Z" fill="#9D0C0C" fill-opacity="0.4"/>
</svg>
