<?xml version="1.0" encoding="utf-8"?>
<!-- Generator: Adobe Illustrator 26.5.0, SVG Export Plug-In . SVG Version: 6.00 Build 0)  -->
<svg version="1.1" id="Layer_1" xmlns="http://www.w3.org/2000/svg" xmlns:xlink="http://www.w3.org/1999/xlink" x="0px" y="0px"
	 viewBox="0 0 274.2 73" style="enable-background:new 0 0 274.2 73;" xml:space="preserve">
<style type="text/css">
	.st0{fill:#FFA31A;}
	.st1{fill:#FFE4BF;}
</style>
<g>
	<g>
		<path class="st0" d="M11.5,11.4H0v-10h34v10H22.5v60h-11V11.4z"/>
	</g>
	<g>
		<path class="st0" d="M33,1.4h30v10H44v18.5h15.1v10H44v21.5h19v10H33V1.4z"/>
	</g>
	<g>
		<path class="st0" d="M67.2,67.5c-2.8-3-4.2-7.2-4.2-12.7V17.2c0-5.5,1.4-9.7,4.2-12.7c2.8-3,6.8-4.5,12-4.5s9.3,1.5,12.1,4.5
			c2.8,3,4.2,7.2,4.2,12.7v7.4H85v-8.1c0-4.3-1.8-6.5-5.5-6.5S74,12.2,74,16.5v39.1c0,4.3,1.8,6.4,5.5,6.4s5.5-2.1,5.5-6.4V44.9
			h10.4v9.9c0,5.5-1.4,9.7-4.2,12.7c-2.8,3-6.8,4.5-12.1,4.5C73.9,72,69.9,70.5,67.2,67.5z"/>
	</g>
	<g>
		<path class="st0" d="M95.4,1.4h11v28.5h11.8V1.4h11v70h-11V39.9h-11.8v31.5h-11C95.4,71.4,95.4,1.4,95.4,1.4z"/>
	</g>
	<g>
		<path class="st1" d="M145.4,12h-11.5V2h34v10h-11.5v60h-11V12z"/>
	</g>
	<g>
		<path class="st1" d="M192.3,56.2c0,2.4-0.5,4.1-1.4,5.2s-2.4,1.6-4.1,1.6c-1.8,0-3.2-0.5-4.1-1.6s-1.4-2.8-1.4-5.2V2h-11v53.4
			c0,5.7,1.4,10,4.2,13.1c2.8,3,6.9,4.6,12.2,4.6s9.4-1.5,12.2-4.6c2.8-3,4.2-7.4,4.2-13V2h-10.6V56.2z"/>
		<path class="st1" d="M231,34.8v-0.2c2.4-1,4.2-2.6,5.4-4.9c1.2-2.3,1.8-5.2,1.8-8.8v-2.8c0-5.5-1.3-9.5-3.9-12.1
			c-2.6-2.6-6.7-4-12.4-4h-16.6v70h17.3c5.5,0,9.6-1.4,12.4-4.2s4.2-7,4.2-12.3v-6C239.2,41.5,236.4,36.7,231,34.8z M216.2,12h5.3
			c1.9,0,3.4,0.6,4.2,1.7s1.4,3,1.4,5.5v3.9c0,2.7-0.6,4.6-1.6,5.7c-1.1,1.1-2.8,1.7-4.9,1.7h-4.3L216.2,12L216.2,12z M228.2,55.1
			c0,2.5-0.5,4.3-1.4,5.3c-0.9,1-2.4,1.5-4.3,1.5h-6.3V40.5h4.9c2.5,0,4.4,0.6,5.4,1.8c1.1,1.2,1.6,3.5,1.6,6.7L228.2,55.1
			L228.2,55.1z"/>
	</g>
	<g>
		<path class="st1" d="M240.4,2h33.8v10h-21.4v18.5h17v10h-17V62h21.4v10h-33.8L240.4,2L240.4,2z"/>
	</g>
</g>
</svg>
